<svg class="scale-75" width="37" height="42" viewBox="0 0 37 42" fill="none" xmlns="http://www.w3.org/2000/svg"><path d="M2.76942 11.6876L7.36032 13.8557C7.85682 14.0901 7.9974 14.7301 7.64499 15.1507L3.14728 20.5183C2.61675 21.1517 1.5891 20.8995 1.41257 20.0927L0.0468166 13.8509C-0.29669 12.2809 1.31461 11.0005 2.76942 11.6876Z" fill="#E5BD77"></path><path d="M36.9286 1.35946C36.8783 0.924625 36.7718 0.497093 36.6786 0C31.0823 3.32115 25.508 6.62897 19.9419 9.9317C19.9419 9.9317 19.9406 9.93233 19.94 9.93297C17.3513 11.4687 14.7645 13.0038 12.178 14.5383C11.9684 14.6628 11.7664 14.7956 11.573 14.9363C7.36287 17.3493 4.52671 21.8842 4.52671 27.0797C4.52671 27.2232 4.52894 27.3662 4.53339 27.5085L5.07155 30.9557C6.75473 36.7976 12.1462 41.0713 18.537 41.0713C19.6687 41.0713 20.7682 40.9373 21.8219 40.6844C22.2253 40.6524 22.6228 40.5355 22.9937 40.3487C23.7888 39.9485 24.4622 39.2268 24.8114 38.3219C26.3944 34.2194 27.9672 30.1118 29.5419 26.0054C29.5887 25.8835 29.611 25.752 29.6711 25.5249C26.4714 27.4268 23.3645 29.2732 20.1505 31.1825C20.1022 30.8128 20.0395 30.5533 20.0389 30.2938C20.0367 29.614 20.2695 29.0001 20.6846 28.4706C21.2555 27.741 21.9056 27.0889 22.6909 26.5819C24.4797 25.4267 26.2653 24.2664 28.0525 23.1093C28.8902 22.5664 29.6647 21.9451 30.3555 21.2254C30.5623 21.0091 30.7569 20.788 30.9376 20.5619C32.2378 18.9397 32.8724 17.0546 32.8097 14.9064C32.7938 14.3528 32.756 13.7925 32.5308 13.2255C30.8132 14.2439 29.1126 15.2527 27.4182 16.2576C26.3616 16.8843 25.3073 17.5097 24.2529 18.1342C21.5001 19.7662 18.3754 21.4077 15.5762 23.054C15.3828 21.8683 15.6271 20.8989 16.3589 20.0483C17.0841 19.2049 17.9251 18.5096 18.8748 17.9347C20.7291 16.8132 22.9606 15.6904 24.814 14.5675C27.4214 12.9876 30.0292 11.4074 32.6376 9.82878C33.3997 9.36758 34.122 8.85493 34.7426 8.21109C36.5956 6.2872 37.2292 3.9688 36.9286 1.35946Z" fill="#E5BD77"></path></svg>